<svg xmlns="http://www.w3.org/2000/svg" xmlns:xlink="http://www.w3.org/1999/xlink" width="1080" zoomAndPan="magnify" viewBox="0 0 810 809.999993" height="1080" preserveAspectRatio="xMidYMid meet" version="1.0"><defs><g/><clipPath id="a03a67f067"><path d="M 2 161 L 252 161 L 252 404.832031 L 2 404.832031 Z M 2 161 " clip-rule="nonzero"/></clipPath><clipPath id="4541a0865c"><path d="M 150.988281 161.253906 C 138.660156 161.253906 128.875 171.949219 128.503906 184.886719 C 128.488281 185.023438 128.480469 185.160156 128.480469 185.296875 L 128.480469 185.433594 C 128.480469 185.503906 128.46875 185.570312 128.46875 185.640625 C 128.46875 185.746094 128.46875 185.855469 128.480469 185.960938 L 128.449219 201.542969 C 128.445312 201.777344 128.46875 202.007812 128.519531 202.238281 C 128.519531 202.242188 128.519531 202.246094 128.519531 202.253906 C 128.746094 209.414062 131.320312 215.984375 135.484375 221.039062 C 131.121094 226.265625 128.484375 233.140625 128.402344 240.640625 C 128.382812 240.792969 128.371094 240.949219 128.375 241.101562 L 128.269531 296.734375 C 128.269531 296.742188 128.269531 296.75 128.269531 296.757812 C 128.269531 296.761719 128.269531 296.769531 128.269531 296.777344 L 128.269531 297.199219 C 128.265625 297.382812 128.28125 297.566406 128.3125 297.75 C 128.3125 297.757812 128.3125 297.765625 128.3125 297.769531 C 128.460938 306.039062 131.6875 313.542969 136.9375 318.882812 C 131.507812 324.371094 128.199219 332.1875 128.203125 340.691406 L 128.203125 340.695312 C 128.191406 340.800781 128.1875 340.902344 128.1875 341.007812 L 128.113281 380.574219 C 128.113281 380.585938 128.113281 380.597656 128.113281 380.609375 C 128.113281 380.617188 128.113281 380.621094 128.113281 380.625 L 128.113281 381.027344 C 128.109375 381.222656 128.125 381.414062 128.15625 381.605469 C 128.644531 394.433594 138.378906 404.996094 150.628906 404.996094 C 158.308594 404.996094 164.996094 400.835938 169.050781 394.582031 C 170.316406 395.183594 171.621094 395.722656 173 396.105469 C 186.867188 399.957031 200.929688 390.640625 204.34375 375.867188 C 204.484375 375.269531 204.574219 374.667969 204.675781 374.070312 C 217.082031 378.75 231.335938 373.390625 238.175781 360.78125 C 243.621094 350.75 243.195312 338.777344 237.980469 329.441406 C 241.558594 326.234375 244.617188 322.234375 246.902344 317.539062 C 255.496094 299.890625 250.546875 278.332031 235.761719 267.082031 C 237.578125 263.097656 238.640625 258.652344 238.640625 253.933594 C 238.640625 239.398438 228.902344 227.082031 215.910156 224.652344 C 221.339844 210.664062 217.46875 194.035156 205.613281 184.699219 C 198.738281 179.285156 190.410156 177.464844 182.578125 178.867188 C 179.339844 179.449219 176.199219 180.609375 173.265625 182.269531 C 171.746094 170.539062 162.46875 161.257812 150.984375 161.257812 Z M 123.3125 161.300781 C 115.578125 161.367188 107.917969 162.160156 100.332031 163.683594 L 100.347656 163.695312 L 100.351562 163.699219 C 100.449219 163.902344 100.546875 164.105469 100.640625 164.3125 L 100.703125 164.472656 C 101.003906 165.191406 101.269531 165.925781 101.496094 166.667969 C 101.722656 167.414062 101.914062 168.167969 102.066406 168.933594 C 102.222656 169.695312 102.339844 170.464844 102.417969 171.242188 C 102.496094 172.015625 102.535156 172.792969 102.535156 173.570312 C 102.539062 174.351562 102.503906 175.128906 102.429688 175.902344 C 102.355469 176.679688 102.242188 177.449219 102.09375 178.214844 C 101.941406 178.976562 101.753906 179.734375 101.53125 180.480469 C 101.308594 181.226562 101.046875 181.960938 100.75 182.679688 C 100.457031 183.402344 100.125 184.105469 99.761719 184.792969 C 99.394531 185.480469 98.996094 186.152344 98.566406 186.800781 C 98.136719 187.449219 97.675781 188.074219 97.183594 188.679688 C 96.691406 189.285156 96.167969 189.863281 95.621094 190.414062 C 95.070312 190.96875 94.496094 191.492188 93.894531 191.988281 C 93.296875 192.484375 92.671875 192.949219 92.027344 193.386719 C 91.378906 193.820312 90.714844 194.222656 90.027344 194.59375 C 89.34375 194.964844 88.640625 195.296875 87.921875 195.597656 C 87.203125 195.898438 86.472656 196.164062 85.726562 196.394531 C 84.984375 196.621094 84.230469 196.816406 83.464844 196.96875 C 82.703125 197.125 81.933594 197.242188 81.160156 197.320312 C 80.382812 197.402344 79.605469 197.441406 78.828125 197.445312 C 78.050781 197.449219 77.273438 197.414062 76.496094 197.339844 C 75.722656 197.269531 74.949219 197.15625 74.1875 197.007812 C 73.421875 196.859375 72.667969 196.675781 71.917969 196.453125 C 71.171875 196.230469 70.441406 195.96875 69.71875 195.675781 C 68.996094 195.382812 68.292969 195.050781 67.605469 194.6875 C 66.914062 194.324219 66.246094 193.925781 65.597656 193.5 C 64.945312 193.070312 64.320312 192.609375 63.714844 192.117188 C 63.109375 191.625 62.53125 191.105469 61.976562 190.558594 C 61.421875 190.011719 60.898438 189.4375 60.402344 188.839844 C 59.902344 188.238281 59.4375 187.617188 59 186.972656 C 58.5625 186.324219 58.160156 185.660156 57.789062 184.976562 C 57.417969 184.292969 57.082031 183.589844 56.78125 182.871094 C 56.671875 182.59375 56.566406 182.3125 56.46875 182.027344 C 49.914062 186.453125 43.847656 191.472656 38.269531 197.078125 C 32.691406 202.683594 27.707031 208.773438 23.3125 215.351562 C 25.871094 216.605469 28.132812 218.265625 30.09375 220.335938 C 32.054688 222.402344 33.59375 224.746094 34.714844 227.363281 L 34.785156 227.53125 C 35.085938 228.25 35.347656 228.980469 35.578125 229.726562 C 35.804688 230.472656 35.996094 231.226562 36.148438 231.988281 C 36.300781 232.753906 36.417969 233.523438 36.496094 234.296875 C 36.574219 235.070312 36.613281 235.847656 36.617188 236.628906 C 36.617188 237.40625 36.582031 238.183594 36.507812 238.960938 C 36.433594 239.734375 36.320312 240.503906 36.171875 241.269531 C 36.019531 242.035156 35.835938 242.789062 35.609375 243.535156 C 35.386719 244.28125 35.125 245.015625 34.832031 245.734375 C 34.535156 246.457031 34.203125 247.160156 33.839844 247.847656 C 33.472656 248.535156 33.078125 249.203125 32.644531 249.851562 C 32.214844 250.503906 31.753906 251.128906 31.261719 251.734375 C 30.769531 252.335938 30.25 252.914062 29.699219 253.46875 C 29.152344 254.019531 28.578125 254.542969 27.976562 255.039062 C 27.375 255.539062 26.753906 256.003906 26.105469 256.4375 C 25.460938 256.875 24.792969 257.277344 24.109375 257.644531 C 23.421875 258.015625 22.722656 258.351562 22.003906 258.652344 C 19.316406 259.773438 16.515625 260.382812 13.605469 260.476562 C 10.691406 260.570312 7.859375 260.144531 5.105469 259.199219 C 3.5 267.136719 2.699219 275.152344 2.691406 283.25 C 2.6875 291.34375 3.476562 299.363281 5.070312 307.300781 C 5.320312 307.179688 5.570312 307.058594 5.828125 306.945312 C 6.542969 306.640625 7.273438 306.375 8.019531 306.144531 C 8.761719 305.910156 9.515625 305.714844 10.277344 305.558594 C 11.039062 305.402344 11.808594 305.28125 12.582031 305.199219 C 13.359375 305.117188 14.132812 305.070312 14.914062 305.066406 C 15.691406 305.058594 16.46875 305.089844 17.246094 305.160156 C 18.019531 305.230469 18.792969 305.339844 19.554688 305.484375 C 20.320312 305.628906 21.078125 305.8125 21.824219 306.035156 C 22.570312 306.253906 23.308594 306.507812 24.027344 306.800781 C 24.75 307.09375 25.457031 307.421875 26.148438 307.78125 C 26.835938 308.140625 27.507812 308.535156 28.160156 308.964844 C 28.808594 309.390625 29.4375 309.847656 30.046875 310.335938 C 30.652344 310.828125 31.234375 311.34375 31.789062 311.890625 C 32.34375 312.433594 32.871094 313.007812 33.371094 313.605469 C 33.871094 314.203125 34.339844 314.824219 34.777344 315.464844 C 35.21875 316.109375 35.625 316.773438 35.996094 317.457031 C 36.371094 318.140625 36.710938 318.839844 37.015625 319.558594 L 37.085938 319.722656 C 37.382812 320.441406 37.648438 321.171875 37.875 321.917969 C 38.101562 322.664062 38.292969 323.417969 38.445312 324.179688 C 38.601562 324.945312 38.714844 325.714844 38.792969 326.488281 C 38.871094 327.261719 38.914062 328.039062 38.914062 328.820312 C 38.917969 329.597656 38.878906 330.375 38.804688 331.148438 C 38.730469 331.925781 38.617188 332.695312 38.46875 333.460938 C 38.320312 334.222656 38.132812 334.976562 37.90625 335.722656 C 37.683594 336.46875 37.425781 337.203125 37.128906 337.921875 C 36.832031 338.644531 36.5 339.347656 36.136719 340.035156 C 35.773438 340.722656 35.375 341.394531 34.941406 342.042969 C 34.511719 342.691406 34.050781 343.316406 33.558594 343.921875 C 33.066406 344.523438 32.546875 345.101562 31.996094 345.65625 C 31.449219 346.207031 30.875 346.730469 30.273438 347.226562 C 29.675781 347.722656 29.050781 348.191406 28.40625 348.625 C 27.757812 349.058594 27.09375 349.460938 26.410156 349.832031 C 25.722656 350.203125 25.019531 350.539062 24.304688 350.839844 C 23.992188 350.957031 23.683594 351.070312 23.367188 351.175781 C 27.859375 357.847656 32.960938 364.019531 38.671875 369.683594 C 44.386719 375.347656 50.597656 380.398438 57.308594 384.832031 C 57.910156 383.445312 58.640625 382.125 59.496094 380.875 C 60.347656 379.625 61.316406 378.46875 62.390625 377.402344 C 63.464844 376.335938 64.632812 375.382812 65.890625 374.539062 C 67.148438 373.695312 68.476562 372.976562 69.871094 372.386719 C 70.585938 372.085938 71.316406 371.816406 72.0625 371.585938 C 72.804688 371.351562 73.558594 371.15625 74.320312 371 C 75.082031 370.84375 75.851562 370.722656 76.625 370.640625 C 77.402344 370.558594 78.179688 370.511719 78.957031 370.507812 C 79.734375 370.5 80.515625 370.53125 81.289062 370.601562 C 82.066406 370.671875 82.835938 370.78125 83.601562 370.925781 C 84.367188 371.070312 85.121094 371.253906 85.871094 371.472656 C 86.617188 371.695312 87.351562 371.949219 88.074219 372.242188 C 88.796875 372.535156 89.503906 372.859375 90.191406 373.222656 C 90.882812 373.582031 91.554688 373.976562 92.207031 374.402344 C 92.855469 374.832031 93.484375 375.289062 94.09375 375.777344 C 94.699219 376.265625 95.28125 376.785156 95.835938 377.332031 C 96.390625 377.875 96.917969 378.449219 97.417969 379.046875 C 97.917969 379.644531 98.386719 380.265625 98.828125 380.90625 C 99.265625 381.550781 99.671875 382.214844 100.046875 382.898438 C 100.417969 383.582031 100.757812 384.28125 101.0625 385 L 101.132812 385.164062 C 101.710938 386.5625 102.152344 388 102.457031 389.480469 C 102.761719 390.964844 102.925781 392.460938 102.945312 393.972656 C 102.964844 395.484375 102.84375 396.984375 102.578125 398.472656 C 102.308594 399.960938 101.90625 401.410156 101.363281 402.824219 C 108.617188 404.195312 115.933594 404.902344 123.3125 404.945312 L 123.3125 333.023438 C 120.925781 332.960938 118.554688 332.734375 116.199219 332.332031 C 113.847656 331.933594 111.53125 331.367188 109.257812 330.636719 C 106.984375 329.902344 104.777344 329.015625 102.628906 327.964844 C 100.484375 326.914062 98.425781 325.71875 96.449219 324.375 C 94.476562 323.03125 92.609375 321.550781 90.847656 319.9375 C 89.085938 318.328125 87.445312 316.597656 85.933594 314.75 C 84.421875 312.902344 83.046875 310.957031 81.8125 308.910156 C 80.578125 306.867188 79.496094 304.742188 78.566406 302.542969 C 77.933594 301.039062 77.375 299.503906 76.890625 297.945312 C 76.40625 296.382812 76 294.804688 75.671875 293.203125 C 75.34375 291.605469 75.09375 289.992188 74.925781 288.367188 C 74.753906 286.742188 74.664062 285.113281 74.652344 283.480469 C 74.644531 281.847656 74.714844 280.21875 74.863281 278.589844 C 75.011719 276.964844 75.242188 275.347656 75.550781 273.746094 C 75.859375 272.140625 76.246094 270.554688 76.707031 268.988281 C 77.171875 267.421875 77.710938 265.882812 78.328125 264.371094 C 78.941406 262.855469 79.628906 261.378906 80.390625 259.933594 C 81.148438 258.488281 81.976562 257.082031 82.875 255.71875 C 83.773438 254.351562 84.738281 253.035156 85.765625 251.765625 C 86.792969 250.496094 87.878906 249.277344 89.023438 248.117188 C 90.171875 246.953125 91.371094 245.847656 92.628906 244.800781 C 93.882812 243.757812 95.1875 242.777344 96.539062 241.859375 C 97.886719 240.941406 99.28125 240.089844 100.714844 239.3125 C 102.152344 238.53125 103.621094 237.820312 105.125 237.183594 C 110.941406 234.742188 117.007812 233.449219 123.316406 233.304688 L 123.316406 161.296875 Z M 150.988281 167.679688 C 159.746094 167.679688 167.082031 175.527344 167.082031 185.640625 C 167.078125 186.011719 167.136719 186.371094 167.257812 186.722656 C 165.515625 188.378906 163.910156 190.246094 162.519531 192.371094 C 162.277344 192.730469 162.117188 193.117188 162.035156 193.539062 C 161.949219 193.960938 161.949219 194.382812 162.035156 194.800781 C 162.121094 195.222656 162.285156 195.613281 162.527344 195.96875 C 162.765625 196.324219 163.066406 196.617188 163.425781 196.851562 C 163.785156 197.089844 164.175781 197.246094 164.597656 197.324219 C 165.019531 197.402344 165.441406 197.394531 165.863281 197.304688 C 166.28125 197.214844 166.667969 197.046875 167.019531 196.800781 C 167.371094 196.558594 167.664062 196.253906 167.894531 195.890625 C 175.84375 183.753906 190.6875 181.117188 201.640625 189.742188 C 212.589844 198.367188 215.191406 215.453125 207.242188 227.59375 C 202.722656 234.496094 195.933594 238.246094 188.941406 238.683594 C 188.242188 238.726562 187.535156 238.695312 186.832031 238.671875 C 186.671875 231.203125 183.769531 223.835938 178.179688 218.460938 C 181.332031 213.65625 183.21875 207.820312 183.277344 201.546875 C 183.285156 201.117188 183.210938 200.703125 183.054688 200.304688 C 182.894531 199.90625 182.667969 199.554688 182.371094 199.25 C 182.070312 198.941406 181.726562 198.703125 181.332031 198.535156 C 180.9375 198.367188 180.527344 198.28125 180.097656 198.273438 C 179.671875 198.269531 179.257812 198.347656 178.859375 198.507812 C 178.464844 198.671875 178.113281 198.902344 177.808594 199.203125 C 177.503906 199.503906 177.269531 199.851562 177.101562 200.246094 C 176.9375 200.640625 176.855469 201.050781 176.851562 201.480469 C 176.730469 214.550781 167.117188 224.683594 155.660156 224.554688 C 144.203125 224.425781 134.773438 214.0625 134.894531 200.992188 C 134.898438 200.886719 134.894531 200.777344 134.886719 200.671875 C 134.882812 200.648438 134.878906 200.628906 134.875 200.605469 L 134.902344 187 L 134.90625 185.425781 C 135.011719 175.417969 142.292969 167.683594 150.988281 167.683594 Z M 174.050781 223.433594 C 181.792969 231.242188 182.558594 244.742188 175.578125 253.542969 C 175.023438 254.242188 174.441406 254.886719 173.832031 255.484375 C 173.554688 255.753906 173.253906 255.976562 172.964844 256.226562 C 172.742188 255.910156 172.539062 255.578125 172.304688 255.269531 C 168.105469 249.78125 161.964844 246.011719 154.828125 245.316406 C 154.722656 245.304688 154.617188 245.300781 154.511719 245.296875 C 154.09375 245.292969 153.691406 245.363281 153.300781 245.515625 C 152.910156 245.664062 152.566406 245.882812 152.261719 246.167969 C 151.957031 246.453125 151.71875 246.785156 151.542969 247.164062 C 151.367188 247.542969 151.269531 247.941406 151.25 248.359375 C 151.230469 248.773438 151.289062 249.179688 151.425781 249.574219 C 151.566406 249.96875 151.773438 250.320312 152.046875 250.632812 C 152.324219 250.949219 152.648438 251.199219 153.019531 251.382812 C 153.394531 251.570312 153.789062 251.679688 154.203125 251.714844 C 164.695312 252.734375 172.71875 263.03125 171.746094 275.03125 C 171.59375 276.90625 171.230469 278.699219 170.6875 280.382812 C 170.546875 280.789062 170.488281 281.210938 170.519531 281.640625 C 170.546875 282.070312 170.65625 282.480469 170.847656 282.867188 C 171.042969 283.253906 171.300781 283.585938 171.628906 283.867188 C 171.957031 284.148438 172.328125 284.355469 172.738281 284.488281 C 173.148438 284.621094 173.570312 284.671875 174 284.632812 C 174.429688 284.597656 174.835938 284.476562 175.21875 284.277344 C 175.601562 284.074219 175.929688 283.808594 176.203125 283.476562 C 176.480469 283.140625 176.679688 282.769531 176.800781 282.355469 C 177.5 280.199219 177.960938 277.917969 178.152344 275.546875 C 178.539062 270.765625 177.777344 266.128906 176.109375 261.980469 C 177.734375 260.710938 179.253906 259.238281 180.609375 257.535156 C 183.542969 253.832031 185.429688 249.550781 186.300781 245.101562 C 193.792969 245.429688 201.265625 242.777344 207.152344 237.5 C 207.660156 237.046875 208.152344 236.570312 208.636719 236.074219 C 210.089844 234.59375 211.425781 232.9375 212.617188 231.113281 C 212.707031 230.980469 212.777344 230.835938 212.863281 230.699219 C 223.578125 231.621094 232.214844 241.484375 232.214844 253.929688 C 232.214844 257.289062 231.578125 260.46875 230.4375 263.335938 C 230.394531 263.449219 230.332031 263.546875 230.285156 263.660156 C 226.429688 261.699219 222.390625 260.496094 218.332031 260.09375 C 214.398438 259.703125 210.46875 260.058594 206.6875 261.039062 C 205.46875 257.621094 203.164062 254.613281 199.90625 252.660156 C 199.34375 252.308594 198.730469 252.152344 198.070312 252.179688 C 197.722656 252.199219 197.386719 252.269531 197.066406 252.394531 C 196.742188 252.515625 196.445312 252.6875 196.179688 252.910156 C 195.910156 253.128906 195.683594 253.386719 195.5 253.679688 C 195.316406 253.972656 195.179688 254.289062 195.097656 254.625 C 195.015625 254.960938 194.988281 255.300781 195.015625 255.648438 C 195.042969 255.992188 195.125 256.324219 195.261719 256.644531 C 195.394531 256.964844 195.578125 257.253906 195.804688 257.511719 C 196.035156 257.773438 196.296875 257.992188 196.597656 258.167969 C 200.835938 260.710938 202.5625 266.914062 200.121094 271.796875 C 199.742188 272.5625 199.289062 273.238281 198.785156 273.824219 C 198.496094 274.148438 198.277344 274.511719 198.136719 274.921875 C 197.992188 275.332031 197.933594 275.753906 197.960938 276.1875 C 197.988281 276.621094 198.101562 277.03125 198.292969 277.421875 C 198.488281 277.808594 198.75 278.144531 199.082031 278.425781 C 199.410156 278.707031 199.785156 278.914062 200.199219 279.046875 C 200.613281 279.175781 201.035156 279.222656 201.46875 279.183594 C 201.898438 279.140625 202.308594 279.019531 202.691406 278.8125 C 203.074219 278.605469 203.398438 278.335938 203.671875 277.996094 C 204.519531 277.003906 205.257812 275.894531 205.871094 274.667969 C 207.023438 272.359375 207.601562 269.882812 207.679688 267.421875 C 214.574219 265.453125 222.066406 266.164062 228.894531 270.164062 C 243.320312 278.613281 248.949219 298.652344 241.125 314.722656 C 237.246094 322.6875 230.894531 328.082031 223.765625 330.511719 C 220.554688 331.605469 217.375 331.3125 213.960938 329.527344 C 210.542969 327.742188 206.964844 324.351562 203.738281 319.304688 C 203.71875 319.28125 203.703125 319.257812 203.6875 319.230469 C 208.191406 315.667969 211.199219 310.023438 211.464844 303.65625 C 211.488281 303.222656 211.425781 302.804688 211.28125 302.394531 C 211.132812 301.984375 210.914062 301.621094 210.617188 301.304688 C 210.324219 300.984375 209.980469 300.734375 209.585938 300.554688 C 209.1875 300.375 208.773438 300.28125 208.339844 300.269531 C 207.914062 300.257812 207.503906 300.328125 207.105469 300.480469 C 206.707031 300.632812 206.355469 300.855469 206.046875 301.148438 C 205.734375 301.441406 205.496094 301.78125 205.320312 302.167969 C 205.148438 302.558594 205.054688 302.964844 205.042969 303.390625 C 204.710938 311.3125 198.773438 317.074219 192.007812 316.734375 C 190.953125 316.683594 189.9375 316.484375 188.972656 316.160156 C 188.566406 316.023438 188.152344 315.96875 187.726562 315.996094 C 187.300781 316.027344 186.898438 316.136719 186.515625 316.324219 C 186.132812 316.515625 185.804688 316.769531 185.523438 317.09375 C 185.242188 317.414062 185.035156 317.777344 184.898438 318.179688 C 184.761719 318.585938 184.710938 319 184.738281 319.425781 C 184.769531 319.851562 184.878906 320.253906 185.066406 320.636719 C 185.257812 321.019531 185.511719 321.347656 185.835938 321.628906 C 186.15625 321.910156 186.519531 322.117188 186.921875 322.253906 C 188.433594 322.761719 190.035156 323.070312 191.6875 323.152344 C 193.914062 323.261719 196.050781 322.933594 198.054688 322.273438 C 198.128906 322.445312 198.21875 322.613281 198.324219 322.769531 C 202 328.515625 206.265625 332.761719 210.980469 335.226562 C 215.699219 337.691406 220.953125 338.265625 225.839844 336.597656 C 228.234375 335.78125 230.539062 334.667969 232.730469 333.324219 C 236.480469 340.628906 236.730469 349.964844 232.53125 357.707031 C 226.699219 368.457031 214.964844 372.222656 205.054688 367.238281 C 204.359375 355.648438 197.015625 345.273438 185.96875 342.109375 C 186.839844 336.777344 185.757812 331.09375 182.535156 326.386719 C 182.230469 325.929688 181.835938 325.574219 181.351562 325.316406 C 180.867188 325.0625 180.351562 324.941406 179.804688 324.949219 C 179.574219 324.953125 179.347656 324.980469 179.125 325.03125 C 178.90625 325.085938 178.691406 325.160156 178.484375 325.257812 C 178.277344 325.355469 178.082031 325.472656 177.902344 325.609375 C 177.71875 325.75 177.554688 325.90625 177.40625 326.078125 C 177.261719 326.253906 177.132812 326.441406 177.023438 326.640625 C 176.914062 326.84375 176.832031 327.054688 176.765625 327.273438 C 176.703125 327.492188 176.664062 327.714844 176.648438 327.945312 C 176.632812 328.171875 176.640625 328.398438 176.675781 328.625 C 176.691406 328.730469 176.710938 328.835938 176.734375 328.941406 C 176.832031 329.328125 176.996094 329.6875 177.226562 330.015625 C 181.484375 336.230469 180.277344 345.253906 174.710938 349.835938 C 173.839844 350.554688 172.929688 351.117188 171.992188 351.542969 C 171.585938 351.707031 171.230469 351.945312 170.921875 352.253906 C 170.613281 352.566406 170.375 352.921875 170.214844 353.328125 C 170.050781 353.734375 169.976562 354.15625 169.984375 354.59375 C 169.996094 355.03125 170.089844 355.449219 170.269531 355.847656 C 170.453125 356.246094 170.703125 356.59375 171.023438 356.890625 C 171.347656 357.183594 171.714844 357.40625 172.128906 357.550781 C 172.539062 357.695312 172.964844 357.753906 173.402344 357.726562 C 173.835938 357.699219 174.25 357.589844 174.640625 357.390625 C 176.097656 356.730469 177.5 355.867188 178.796875 354.796875 C 181.027344 352.960938 182.757812 350.703125 184 348.21875 C 184.019531 348.226562 184.039062 348.234375 184.058594 348.238281 C 194.296875 351.085938 200.769531 362.757812 198.078125 374.417969 C 196.058594 383.160156 189.691406 389.101562 182.3125 390.328125 C 181.699219 390.429688 181.078125 390.503906 180.449219 390.539062 C 179.195312 390.609375 177.917969 390.542969 176.640625 390.332031 C 176 390.230469 175.363281 390.089844 174.722656 389.910156 C 173.707031 389.628906 172.746094 389.234375 171.816406 388.792969 C 172.667969 386.222656 173.148438 383.46875 173.148438 380.609375 C 173.15625 380.1875 173.082031 379.785156 172.925781 379.394531 C 172.773438 379.003906 172.550781 378.65625 172.261719 378.351562 C 171.972656 378.046875 171.636719 377.808594 171.253906 377.636719 C 170.871094 377.464844 170.46875 377.371094 170.050781 377.359375 C 169.628906 377.34375 169.222656 377.40625 168.828125 377.550781 C 168.4375 377.695312 168.082031 377.910156 167.773438 378.191406 C 167.464844 378.476562 167.21875 378.808594 167.035156 379.1875 C 166.855469 379.566406 166.753906 379.964844 166.730469 380.382812 C 166.726562 380.457031 166.722656 380.53125 166.722656 380.609375 C 166.722656 390.085938 160.273438 397.578125 152.25 398.476562 C 151.714844 398.535156 151.175781 398.566406 150.628906 398.566406 C 141.875 398.566406 134.542969 390.726562 134.535156 380.625 C 134.535156 380.617188 134.535156 380.613281 134.535156 380.609375 L 134.613281 342.1875 C 134.621094 342.054688 134.625 341.921875 134.617188 341.789062 C 134.0625 328.9375 142.875 318.332031 154.066406 317.441406 C 155.292969 320.761719 157.332031 323.792969 160.183594 326.140625 C 161.480469 327.210938 162.875 328.082031 164.332031 328.742188 C 164.722656 328.925781 165.132812 329.027344 165.5625 329.046875 C 165.992188 329.066406 166.410156 329 166.8125 328.851562 C 167.21875 328.703125 167.578125 328.480469 167.894531 328.1875 C 168.207031 327.894531 168.453125 327.554688 168.632812 327.160156 C 168.808594 326.769531 168.90625 326.355469 168.917969 325.925781 C 168.929688 325.496094 168.859375 325.082031 168.703125 324.679688 C 168.546875 324.277344 168.320312 323.921875 168.023438 323.609375 C 167.726562 323.300781 167.378906 323.058594 166.984375 322.886719 C 166.046875 322.460938 165.132812 321.898438 164.261719 321.179688 C 158.699219 316.597656 157.492188 307.574219 161.75 301.359375 C 162.097656 300.863281 162.289062 300.316406 162.328125 299.714844 C 162.367188 299.109375 162.246094 298.539062 161.964844 298.003906 C 161.679688 297.472656 161.28125 297.050781 160.761719 296.742188 C 160.238281 296.433594 159.675781 296.285156 159.074219 296.292969 C 158.542969 296.300781 158.046875 296.433594 157.582031 296.6875 C 157.117188 296.941406 156.738281 297.289062 156.445312 297.730469 C 153.6875 301.757812 152.496094 306.5 152.75 311.125 C 148.851562 311.558594 145.222656 312.855469 142.015625 314.84375 C 137.503906 310.527344 134.597656 304.085938 134.691406 296.839844 L 134.742188 269.347656 L 134.796875 241.488281 C 134.804688 241.402344 134.804688 241.320312 134.800781 241.234375 C 134.746094 235.179688 136.769531 229.683594 140.078125 225.535156 C 144.453125 228.894531 149.777344 230.914062 155.582031 230.980469 C 162.707031 231.0625 169.15625 228.167969 174.046875 223.433594 Z M 174.050781 223.433594 " clip-rule="nonzero"/></clipPath><linearGradient x1="-0.0000236828" gradientTransform="matrix(248.427538, 0, 0, 243.741588, 2.691446, 161.254529)" y1="0" x2="1.017618" gradientUnits="userSpaceOnUse" y2="0" id="a7f1f0d8d4"><stop stop-opacity="1" stop-color="rgb(0%, 59.199524%, 69.799805%)" offset="0"/><stop stop-opacity="1" stop-color="rgb(0.141907%, 59.313965%, 69.880676%)" offset="0.0078125"/><stop stop-opacity="1" stop-color="rgb(0.428772%, 59.544373%, 70.042419%)" offset="0.015625"/><stop stop-opacity="1" stop-color="rgb(0.715637%, 59.77478%, 70.204163%)" offset="0.0234375"/><stop stop-opacity="1" stop-color="rgb(1.002502%, 60.005188%, 70.365906%)" offset="0.03125"/><stop stop-opacity="1" stop-color="rgb(1.289368%, 60.235596%, 70.527649%)" offset="0.0390625"/><stop stop-opacity="1" stop-color="rgb(1.576233%, 60.466003%, 70.690918%)" offset="0.046875"/><stop stop-opacity="1" stop-color="rgb(1.863098%, 60.696411%, 70.852661%)" offset="0.0546875"/><stop stop-opacity="1" stop-color="rgb(2.151489%, 60.926819%, 71.014404%)" offset="0.0625"/><stop stop-opacity="1" stop-color="rgb(2.438354%, 61.157227%, 71.177673%)" offset="0.0703125"/><stop stop-opacity="1" stop-color="rgb(2.72522%, 61.387634%, 71.339417%)" offset="0.078125"/><stop stop-opacity="1" stop-color="rgb(3.012085%, 61.618042%, 71.50116%)" offset="0.0859375"/><stop stop-opacity="1" stop-color="rgb(3.29895%, 61.849976%, 71.664429%)" offset="0.09375"/><stop stop-opacity="1" stop-color="rgb(3.585815%, 62.080383%, 71.826172%)" offset="0.101562"/><stop stop-opacity="1" stop-color="rgb(3.872681%, 62.310791%, 71.987915%)" offset="0.109375"/><stop stop-opacity="1" stop-color="rgb(4.159546%, 62.541199%, 72.149658%)" offset="0.117187"/><stop stop-opacity="1" stop-color="rgb(4.446411%, 62.771606%, 72.312927%)" offset="0.125"/><stop stop-opacity="1" stop-color="rgb(4.733276%, 63.002014%, 72.47467%)" offset="0.132812"/><stop stop-opacity="1" stop-color="rgb(5.021667%, 63.232422%, 72.636414%)" offset="0.140625"/><stop stop-opacity="1" stop-color="rgb(5.308533%, 63.46283%, 72.799683%)" offset="0.148438"/><stop stop-opacity="1" stop-color="rgb(5.595398%, 63.693237%, 72.961426%)" offset="0.15625"/><stop stop-opacity="1" stop-color="rgb(5.882263%, 63.923645%, 73.123169%)" offset="0.164062"/><stop stop-opacity="1" stop-color="rgb(6.169128%, 64.155579%, 73.284912%)" offset="0.171875"/><stop stop-opacity="1" stop-color="rgb(6.455994%, 64.385986%, 73.448181%)" offset="0.179687"/><stop stop-opacity="1" stop-color="rgb(6.742859%, 64.616394%, 73.609924%)" offset="0.1875"/><stop stop-opacity="1" stop-color="rgb(7.029724%, 64.846802%, 73.771667%)" offset="0.195312"/><stop stop-opacity="1" stop-color="rgb(7.316589%, 65.077209%, 73.934937%)" offset="0.203125"/><stop stop-opacity="1" stop-color="rgb(7.603455%, 65.307617%, 74.09668%)" offset="0.210937"/><stop stop-opacity="1" stop-color="rgb(7.89032%, 65.538025%, 74.258423%)" offset="0.21875"/><stop stop-opacity="1" stop-color="rgb(8.178711%, 65.768433%, 74.420166%)" offset="0.226562"/><stop stop-opacity="1" stop-color="rgb(8.465576%, 65.99884%, 74.583435%)" offset="0.234375"/><stop stop-opacity="1" stop-color="rgb(8.752441%, 66.229248%, 74.745178%)" offset="0.242187"/><stop stop-opacity="1" stop-color="rgb(9.039307%, 66.461182%, 74.906921%)" offset="0.25"/><stop stop-opacity="1" stop-color="rgb(9.326172%, 66.691589%, 75.07019%)" offset="0.257812"/><stop stop-opacity="1" stop-color="rgb(9.613037%, 66.921997%, 75.231934%)" offset="0.265625"/><stop stop-opacity="1" stop-color="rgb(9.899902%, 67.152405%, 75.393677%)" offset="0.273438"/><stop stop-opacity="1" stop-color="rgb(10.186768%, 67.382812%, 75.55542%)" offset="0.28125"/><stop stop-opacity="1" stop-color="rgb(10.473633%, 67.61322%, 75.718689%)" offset="0.289062"/><stop stop-opacity="1" stop-color="rgb(10.760498%, 67.843628%, 75.880432%)" offset="0.296875"/><stop stop-opacity="1" stop-color="rgb(11.047363%, 68.074036%, 76.042175%)" offset="0.304687"/><stop stop-opacity="1" stop-color="rgb(11.335754%, 68.304443%, 76.205444%)" offset="0.3125"/><stop stop-opacity="1" stop-color="rgb(11.62262%, 68.534851%, 76.367188%)" offset="0.320312"/><stop stop-opacity="1" stop-color="rgb(11.909485%, 68.766785%, 76.528931%)" offset="0.328125"/><stop stop-opacity="1" stop-color="rgb(12.19635%, 68.997192%, 76.6922%)" offset="0.335937"/><stop stop-opacity="1" stop-color="rgb(12.483215%, 69.2276%, 76.853943%)" offset="0.34375"/><stop stop-opacity="1" stop-color="rgb(12.770081%, 69.458008%, 77.015686%)" offset="0.351562"/><stop stop-opacity="1" stop-color="rgb(13.056946%, 69.688416%, 77.177429%)" offset="0.359375"/><stop stop-opacity="1" stop-color="rgb(13.343811%, 69.918823%, 77.340698%)" offset="0.367187"/><stop stop-opacity="1" stop-color="rgb(13.630676%, 70.149231%, 77.502441%)" offset="0.375"/><stop stop-opacity="1" stop-color="rgb(13.917542%, 70.379639%, 77.664185%)" offset="0.382812"/><stop stop-opacity="1" stop-color="rgb(14.204407%, 70.610046%, 77.827454%)" offset="0.390625"/><stop stop-opacity="1" stop-color="rgb(14.492798%, 70.840454%, 77.989197%)" offset="0.398437"/><stop stop-opacity="1" stop-color="rgb(14.779663%, 71.072388%, 78.15094%)" offset="0.40625"/><stop stop-opacity="1" stop-color="rgb(15.066528%, 71.302795%, 78.312683%)" offset="0.414062"/><stop stop-opacity="1" stop-color="rgb(15.353394%, 71.533203%, 78.475952%)" offset="0.421875"/><stop stop-opacity="1" stop-color="rgb(15.640259%, 71.763611%, 78.637695%)" offset="0.429687"/><stop stop-opacity="1" stop-color="rgb(15.927124%, 71.994019%, 78.799438%)" offset="0.4375"/><stop stop-opacity="1" stop-color="rgb(16.213989%, 72.224426%, 78.962708%)" offset="0.445312"/><stop stop-opacity="1" stop-color="rgb(16.500854%, 72.454834%, 79.124451%)" offset="0.453125"/><stop stop-opacity="1" stop-color="rgb(16.78772%, 72.685242%, 79.286194%)" offset="0.460937"/><stop stop-opacity="1" stop-color="rgb(17.074585%, 72.915649%, 79.447937%)" offset="0.46875"/><stop stop-opacity="1" stop-color="rgb(17.362976%, 73.146057%, 79.611206%)" offset="0.476562"/><stop stop-opacity="1" stop-color="rgb(17.649841%, 73.377991%, 79.772949%)" offset="0.484375"/><stop stop-opacity="1" stop-color="rgb(17.936707%, 73.608398%, 79.934692%)" offset="0.492187"/><stop stop-opacity="1" stop-color="rgb(18.223572%, 73.838806%, 80.097961%)" offset="0.5"/><stop stop-opacity="1" stop-color="rgb(18.510437%, 74.069214%, 80.259705%)" offset="0.507812"/><stop stop-opacity="1" stop-color="rgb(18.797302%, 74.299622%, 80.421448%)" offset="0.515625"/><stop stop-opacity="1" stop-color="rgb(19.084167%, 74.530029%, 80.583191%)" offset="0.523437"/><stop stop-opacity="1" stop-color="rgb(19.371033%, 74.760437%, 80.74646%)" offset="0.53125"/><stop stop-opacity="1" stop-color="rgb(19.657898%, 74.990845%, 80.908203%)" offset="0.539062"/><stop stop-opacity="1" stop-color="rgb(19.944763%, 75.221252%, 81.069946%)" offset="0.546875"/><stop stop-opacity="1" stop-color="rgb(20.231628%, 75.45166%, 81.233215%)" offset="0.554687"/><stop stop-opacity="1" stop-color="rgb(20.52002%, 75.683594%, 81.394958%)" offset="0.5625"/><stop stop-opacity="1" stop-color="rgb(20.806885%, 75.914001%, 81.556702%)" offset="0.570312"/><stop stop-opacity="1" stop-color="rgb(21.09375%, 76.144409%, 81.719971%)" offset="0.578125"/><stop stop-opacity="1" stop-color="rgb(21.380615%, 76.374817%, 81.881714%)" offset="0.585937"/><stop stop-opacity="1" stop-color="rgb(21.66748%, 76.605225%, 82.043457%)" offset="0.59375"/><stop stop-opacity="1" stop-color="rgb(21.954346%, 76.835632%, 82.2052%)" offset="0.601562"/><stop stop-opacity="1" stop-color="rgb(22.241211%, 77.06604%, 82.368469%)" offset="0.609375"/><stop stop-opacity="1" stop-color="rgb(22.528076%, 77.296448%, 82.530212%)" offset="0.617187"/><stop stop-opacity="1" stop-color="rgb(22.814941%, 77.526855%, 82.691956%)" offset="0.625"/><stop stop-opacity="1" stop-color="rgb(23.101807%, 77.757263%, 82.855225%)" offset="0.632812"/><stop stop-opacity="1" stop-color="rgb(23.388672%, 77.989197%, 83.016968%)" offset="0.640625"/><stop stop-opacity="1" stop-color="rgb(23.677063%, 78.219604%, 83.178711%)" offset="0.648437"/><stop stop-opacity="1" stop-color="rgb(23.963928%, 78.450012%, 83.340454%)" offset="0.65625"/><stop stop-opacity="1" stop-color="rgb(24.250793%, 78.68042%, 83.503723%)" offset="0.664062"/><stop stop-opacity="1" stop-color="rgb(24.537659%, 78.910828%, 83.665466%)" offset="0.671875"/><stop stop-opacity="1" stop-color="rgb(24.824524%, 79.141235%, 83.827209%)" offset="0.679687"/><stop stop-opacity="1" stop-color="rgb(25.111389%, 79.371643%, 83.990479%)" offset="0.6875"/><stop stop-opacity="1" stop-color="rgb(25.398254%, 79.602051%, 84.152222%)" offset="0.695312"/><stop stop-opacity="1" stop-color="rgb(25.68512%, 79.832458%, 84.313965%)" offset="0.703125"/><stop stop-opacity="1" stop-color="rgb(25.971985%, 80.062866%, 84.475708%)" offset="0.710938"/><stop stop-opacity="1" stop-color="rgb(26.25885%, 80.2948%, 84.638977%)" offset="0.71875"/><stop stop-opacity="1" stop-color="rgb(26.545715%, 80.525208%, 84.80072%)" offset="0.726562"/><stop stop-opacity="1" stop-color="rgb(26.834106%, 80.755615%, 84.962463%)" offset="0.734375"/><stop stop-opacity="1" stop-color="rgb(27.120972%, 80.986023%, 85.125732%)" offset="0.742188"/><stop stop-opacity="1" stop-color="rgb(27.407837%, 81.216431%, 85.287476%)" offset="0.75"/><stop stop-opacity="1" stop-color="rgb(27.694702%, 81.446838%, 85.449219%)" offset="0.757812"/><stop stop-opacity="1" stop-color="rgb(27.981567%, 81.677246%, 85.612488%)" offset="0.765625"/><stop stop-opacity="1" stop-color="rgb(28.268433%, 81.907654%, 85.774231%)" offset="0.773438"/><stop stop-opacity="1" stop-color="rgb(28.555298%, 82.138062%, 85.935974%)" offset="0.78125"/><stop stop-opacity="1" stop-color="rgb(28.842163%, 82.368469%, 86.097717%)" offset="0.789062"/><stop stop-opacity="1" stop-color="rgb(29.129028%, 82.600403%, 86.260986%)" offset="0.796875"/><stop stop-opacity="1" stop-color="rgb(29.415894%, 82.830811%, 86.422729%)" offset="0.804688"/><stop stop-opacity="1" stop-color="rgb(29.704285%, 83.061218%, 86.584473%)" offset="0.8125"/><stop stop-opacity="1" stop-color="rgb(29.99115%, 83.291626%, 86.747742%)" offset="0.820312"/><stop stop-opacity="1" stop-color="rgb(30.278015%, 83.522034%, 86.909485%)" offset="0.828125"/><stop stop-opacity="1" stop-color="rgb(30.56488%, 83.752441%, 87.071228%)" offset="0.835937"/><stop stop-opacity="1" stop-color="rgb(30.851746%, 83.982849%, 87.232971%)" offset="0.84375"/><stop stop-opacity="1" stop-color="rgb(31.138611%, 84.213257%, 87.39624%)" offset="0.851562"/><stop stop-opacity="1" stop-color="rgb(31.425476%, 84.443665%, 87.557983%)" offset="0.859375"/><stop stop-opacity="1" stop-color="rgb(31.712341%, 84.674072%, 87.719727%)" offset="0.867187"/><stop stop-opacity="1" stop-color="rgb(31.999207%, 84.906006%, 87.882996%)" offset="0.875"/><stop stop-opacity="1" stop-color="rgb(32.286072%, 85.136414%, 88.044739%)" offset="0.882812"/><stop stop-opacity="1" stop-color="rgb(32.572937%, 85.366821%, 88.206482%)" offset="0.890625"/><stop stop-opacity="1" stop-color="rgb(32.861328%, 85.597229%, 88.368225%)" offset="0.898438"/><stop stop-opacity="1" stop-color="rgb(33.148193%, 85.827637%, 88.531494%)" offset="0.90625"/><stop stop-opacity="1" stop-color="rgb(33.435059%, 86.058044%, 88.693237%)" offset="0.914062"/><stop stop-opacity="1" stop-color="rgb(33.721924%, 86.288452%, 88.85498%)" offset="0.921875"/><stop stop-opacity="1" stop-color="rgb(34.008789%, 86.51886%, 89.01825%)" offset="0.929687"/><stop stop-opacity="1" stop-color="rgb(34.295654%, 86.749268%, 89.179993%)" offset="0.9375"/><stop stop-opacity="1" stop-color="rgb(34.58252%, 86.979675%, 89.341736%)" offset="0.945312"/><stop stop-opacity="1" stop-color="rgb(34.869385%, 87.211609%, 89.503479%)" offset="0.953125"/><stop stop-opacity="1" stop-color="rgb(35.15625%, 87.442017%, 89.666748%)" offset="0.960937"/><stop stop-opacity="1" stop-color="rgb(35.443115%, 87.672424%, 89.828491%)" offset="0.96875"/><stop stop-opacity="1" stop-color="rgb(35.72998%, 87.902832%, 89.990234%)" offset="0.976562"/><stop stop-opacity="1" stop-color="rgb(35.986328%, 88.108826%, 90.135193%)" offset="0.984375"/><stop stop-opacity="1" stop-color="rgb(36.099243%, 88.198853%, 90.19928%)" offset="1"/></linearGradient></defs><g clip-path="url(#a03a67f067)"><g clip-path="url(#4541a0865c)"><path fill="url(#a7f1f0d8d4)" d="M 2.6875 161.253906 L 2.6875 404.832031 L 255.496094 404.832031 L 255.496094 161.253906 Z M 2.6875 161.253906 " fill-rule="nonzero"/></g></g><g fill="#000000" fill-opacity="1"><g transform="translate(265.967714, 329.928211)"><g><path d="M 1.5 0 L 9.8125 -86.03125 L 38.953125 -86.03125 L 47.171875 0 L 30.84375 0 L 29.640625 -13.921875 L 19.234375 -13.921875 L 18.234375 0 Z M 20.53125 -27.640625 L 28.34375 -27.640625 L 24.53125 -71.40625 L 23.734375 -71.40625 Z M 20.53125 -27.640625 "/></g></g></g><g fill="#000000" fill-opacity="1"><g transform="translate(314.539088, 329.928211)"><g><path d="M 3.5 -73.3125 L 21.03125 -73.3125 L 21.03125 -65.203125 C 21.894531 -68.078125 23.410156 -70.296875 25.578125 -71.859375 C 27.753906 -73.429688 30.445312 -74.21875 33.65625 -74.21875 L 33.65625 -59.59375 C 31.1875 -59.59375 28.460938 -59.238281 25.484375 -58.53125 C 22.515625 -57.832031 21.03125 -57.019531 21.03125 -56.09375 L 21.03125 0 L 3.5 0 Z M 3.5 -73.3125 "/></g></g></g><g fill="#000000" fill-opacity="1"><g transform="translate(348.989705, 329.928211)"><g><path d="M 18.625 0.796875 C 14.019531 0.796875 10.847656 -0.171875 9.109375 -2.109375 C 7.378906 -4.046875 6.515625 -7.148438 6.515625 -11.421875 L 6.515625 -57.1875 L 1.609375 -57.1875 L 1.609375 -70.515625 L 6.515625 -70.515625 L 6.515625 -86.03125 L 23.53125 -86.03125 L 23.53125 -70.515625 L 28.546875 -70.515625 L 28.546875 -57.1875 L 23.53125 -57.1875 L 23.53125 -16.03125 C 23.53125 -14.757812 23.628906 -13.820312 23.828125 -13.21875 C 24.035156 -12.613281 24.570312 -12.3125 25.4375 -12.3125 C 26.101562 -12.3125 26.738281 -12.34375 27.34375 -12.40625 C 27.945312 -12.476562 28.347656 -12.515625 28.546875 -12.515625 L 28.546875 -0.5 C 27.546875 -0.226562 26.09375 0.0507812 24.1875 0.34375 C 22.28125 0.644531 20.425781 0.796875 18.625 0.796875 Z M 18.625 0.796875 "/></g></g></g><g fill="#000000" fill-opacity="1"><g transform="translate(379.534592, 329.928211)"><g><path d="M 3.40625 -78.21875 L 3.40625 -90.4375 L 20.9375 -90.4375 L 20.9375 -78.21875 Z M 3.40625 0 L 3.40625 -73.3125 L 20.9375 -73.3125 L 20.9375 0 Z M 3.40625 0 "/></g></g></g><g fill="#000000" fill-opacity="1"><g transform="translate(403.870357, 329.928211)"><g><path d="M 25.546875 0.796875 C 17.523438 0.796875 11.742188 -1.238281 8.203125 -5.3125 C 4.671875 -9.382812 2.90625 -15.625 2.90625 -24.03125 L 2.90625 -46.671875 C 2.90625 -53.015625 3.585938 -58.171875 4.953125 -62.140625 C 6.328125 -66.117188 8.628906 -69.109375 11.859375 -71.109375 C 15.097656 -73.109375 19.59375 -74.109375 25.34375 -74.109375 C 31.613281 -74.109375 36.71875 -72.472656 40.65625 -69.203125 C 44.601562 -65.929688 46.578125 -61.359375 46.578125 -55.484375 L 46.578125 -44.265625 L 28.75 -44.265625 L 28.75 -54.578125 C 28.75 -56.515625 28.476562 -58 27.9375 -59.03125 C 27.40625 -60.070312 26.375 -60.59375 24.84375 -60.59375 C 21.96875 -60.59375 20.53125 -58.554688 20.53125 -54.484375 L 20.53125 -18.921875 C 20.53125 -17.253906 20.878906 -15.835938 21.578125 -14.671875 C 22.285156 -13.503906 23.335938 -12.921875 24.734375 -12.921875 C 26.140625 -12.921875 27.191406 -13.488281 27.890625 -14.625 C 28.585938 -15.757812 28.90625 -17.226562 28.84375 -19.03125 L 28.75 -31.34375 L 46.578125 -31.34375 L 46.578125 -18.53125 C 46.578125 -12.519531 44.625 -7.796875 40.71875 -4.359375 C 36.8125 -0.921875 31.753906 0.796875 25.546875 0.796875 Z M 25.546875 0.796875 "/></g></g></g><g fill="#000000" fill-opacity="1"><g transform="translate(453.042613, 329.928211)"><g><path d="M 3.5 0 L 3.5 -86.53125 L 21.328125 -86.53125 L 21.328125 0 Z M 3.5 0 "/></g></g></g><g fill="#000000" fill-opacity="1"><g transform="translate(477.879105, 329.928211)"><g><path d="M 24.03125 0.796875 C 16.488281 0.796875 11.082031 -1.269531 7.8125 -5.40625 C 4.539062 -9.550781 2.90625 -15.726562 2.90625 -23.9375 L 2.90625 -53.390625 C 2.90625 -60.128906 4.835938 -65.265625 8.703125 -68.796875 C 12.578125 -72.335938 17.988281 -74.109375 24.9375 -74.109375 C 39.03125 -74.109375 46.078125 -67.203125 46.078125 -53.390625 L 46.078125 -48.078125 C 46.078125 -42.734375 46.007812 -38.394531 45.875 -35.0625 L 20.4375 -35.0625 L 20.4375 -20.828125 C 20.4375 -18.296875 20.703125 -16.3125 21.234375 -14.875 C 21.765625 -13.4375 22.898438 -12.71875 24.640625 -12.71875 C 25.972656 -12.71875 26.921875 -13.117188 27.484375 -13.921875 C 28.054688 -14.722656 28.390625 -15.640625 28.484375 -16.671875 C 28.585938 -17.710938 28.640625 -19.234375 28.640625 -21.234375 L 28.640625 -28.34375 L 46.078125 -28.34375 L 46.078125 -24.140625 C 46.078125 -15.585938 44.421875 -9.289062 41.109375 -5.25 C 37.804688 -1.21875 32.113281 0.796875 24.03125 0.796875 Z M 28.640625 -43.765625 L 28.640625 -53.1875 C 28.640625 -58.457031 27.335938 -61.09375 24.734375 -61.09375 C 21.796875 -61.09375 20.328125 -58.457031 20.328125 -53.1875 L 20.328125 -43.765625 Z M 28.640625 -43.765625 "/></g></g></g><g fill="#000000" fill-opacity="1"><g transform="translate(526.75091, 329.928211)"><g/></g></g><g fill="#000000" fill-opacity="1"><g transform="translate(550.185342, 329.928211)"><g><path d="M 3.8125 -86.03125 L 27.546875 -86.03125 C 33.679688 -86.03125 38.285156 -84.328125 41.359375 -80.921875 C 44.429688 -77.515625 46.003906 -72.472656 46.078125 -65.796875 L 46.265625 -25.546875 C 46.335938 -17.054688 44.867188 -10.675781 41.859375 -6.40625 C 38.859375 -2.132812 33.882812 0 26.9375 0 L 3.8125 0 Z M 24.140625 -15.21875 C 27.273438 -15.21875 28.84375 -16.753906 28.84375 -19.828125 L 28.84375 -64.203125 C 28.84375 -66.140625 28.691406 -67.59375 28.390625 -68.5625 C 28.085938 -69.53125 27.535156 -70.179688 26.734375 -70.515625 C 25.941406 -70.847656 24.707031 -71.015625 23.03125 -71.015625 L 21.140625 -71.015625 L 21.140625 -15.21875 Z M 24.140625 -15.21875 "/></g></g></g><g fill="#000000" fill-opacity="1"><g transform="translate(599.557893, 329.928211)"><g><path d="M 3.40625 -78.21875 L 3.40625 -90.4375 L 20.9375 -90.4375 L 20.9375 -78.21875 Z M 3.40625 0 L 3.40625 -73.3125 L 20.9375 -73.3125 L 20.9375 0 Z M 3.40625 0 "/></g></g></g><g fill="#000000" fill-opacity="1"><g transform="translate(623.893658, 329.928211)"><g><path d="M 23.234375 10.71875 C 18.023438 10.71875 13.9375 10.300781 10.96875 9.46875 C 8 8.632812 5.078125 7.046875 2.203125 4.703125 L 8.21875 -5.40625 C 12.488281 -2.875 16.726562 -1.609375 20.9375 -1.609375 C 23.675781 -1.609375 25.742188 -2.472656 27.140625 -4.203125 C 28.546875 -5.941406 29.25 -8.3125 29.25 -11.3125 L 29.25 -15.328125 C 27.84375 -10.316406 24.132812 -7.8125 18.125 -7.8125 C 13.113281 -7.8125 9.421875 -9.515625 7.046875 -12.921875 C 4.679688 -16.328125 3.5 -20.867188 3.5 -26.546875 L 3.5 -54.078125 C 3.5 -60.554688 4.582031 -65.515625 6.75 -68.953125 C 8.925781 -72.390625 12.71875 -74.109375 18.125 -74.109375 C 21.257812 -74.109375 23.742188 -73.320312 25.578125 -71.75 C 27.421875 -70.1875 28.644531 -67.972656 29.25 -65.109375 L 29.25 -73.3125 L 47.171875 -73.3125 L 47.171875 -12.421875 C 47.171875 -4.203125 45.265625 1.707031 41.453125 5.3125 C 37.648438 8.914062 31.578125 10.71875 23.234375 10.71875 Z M 25.140625 -21.03125 C 27.878906 -21.03125 29.25 -23.5 29.25 -28.4375 L 29.25 -54.578125 C 29.25 -56.046875 28.847656 -57.445312 28.046875 -58.78125 C 27.242188 -60.125 26.242188 -60.796875 25.046875 -60.796875 C 23.503906 -60.796875 22.46875 -60.242188 21.9375 -59.140625 C 21.40625 -58.035156 21.140625 -56.515625 21.140625 -54.578125 L 21.140625 -28.4375 C 21.140625 -26.238281 21.40625 -24.453125 21.9375 -23.078125 C 22.46875 -21.710938 23.535156 -21.03125 25.140625 -21.03125 Z M 25.140625 -21.03125 "/></g></g></g><g fill="#000000" fill-opacity="1"><g transform="translate(674.367818, 329.928211)"><g><path d="M 24.03125 0.796875 C 16.488281 0.796875 11.082031 -1.269531 7.8125 -5.40625 C 4.539062 -9.550781 2.90625 -15.726562 2.90625 -23.9375 L 2.90625 -53.390625 C 2.90625 -60.128906 4.835938 -65.265625 8.703125 -68.796875 C 12.578125 -72.335938 17.988281 -74.109375 24.9375 -74.109375 C 39.03125 -74.109375 46.078125 -67.203125 46.078125 -53.390625 L 46.078125 -48.078125 C 46.078125 -42.734375 46.007812 -38.394531 45.875 -35.0625 L 20.4375 -35.0625 L 20.4375 -20.828125 C 20.4375 -18.296875 20.703125 -16.3125 21.234375 -14.875 C 21.765625 -13.4375 22.898438 -12.71875 24.640625 -12.71875 C 25.972656 -12.71875 26.921875 -13.117188 27.484375 -13.921875 C 28.054688 -14.722656 28.390625 -15.640625 28.484375 -16.671875 C 28.585938 -17.710938 28.640625 -19.234375 28.640625 -21.234375 L 28.640625 -28.34375 L 46.078125 -28.34375 L 46.078125 -24.140625 C 46.078125 -15.585938 44.421875 -9.289062 41.109375 -5.25 C 37.804688 -1.21875 32.113281 0.796875 24.03125 0.796875 Z M 28.640625 -43.765625 L 28.640625 -53.1875 C 28.640625 -58.457031 27.335938 -61.09375 24.734375 -61.09375 C 21.796875 -61.09375 20.328125 -58.457031 20.328125 -53.1875 L 20.328125 -43.765625 Z M 28.640625 -43.765625 "/></g></g></g><g fill="#000000" fill-opacity="1"><g transform="translate(723.239624, 329.928211)"><g><path d="M 23.640625 0.796875 C 9.148438 0.796875 1.90625 -6.546875 1.90625 -21.234375 L 2 -27.046875 L 19.53125 -27.046875 L 19.625 -18.421875 C 19.625 -16.691406 19.957031 -15.375 20.625 -14.46875 C 21.300781 -13.570312 22.40625 -13.125 23.9375 -13.125 C 26.269531 -13.125 27.4375 -15.023438 27.4375 -18.828125 C 27.4375 -21.628906 26.882812 -23.832031 25.78125 -25.4375 C 24.6875 -27.039062 22.9375 -28.742188 20.53125 -30.546875 L 11.21875 -37.765625 C 8.007812 -40.234375 5.703125 -42.785156 4.296875 -45.421875 C 2.898438 -48.054688 2.203125 -51.78125 2.203125 -56.59375 C 2.203125 -60.332031 3.1875 -63.519531 5.15625 -66.15625 C 7.125 -68.789062 9.742188 -70.773438 13.015625 -72.109375 C 16.285156 -73.441406 19.925781 -74.109375 23.9375 -74.109375 C 38.15625 -74.109375 45.265625 -67.03125 45.265625 -52.875 L 45.265625 -51.484375 L 27.140625 -51.484375 L 27.140625 -54.28125 C 27.140625 -56.019531 26.851562 -57.503906 26.28125 -58.734375 C 25.71875 -59.972656 24.769531 -60.59375 23.4375 -60.59375 C 22.238281 -60.59375 21.320312 -60.238281 20.6875 -59.53125 C 20.050781 -58.832031 19.734375 -57.882812 19.734375 -56.6875 C 19.734375 -54.019531 20.765625 -51.953125 22.828125 -50.484375 L 33.65625 -42.5625 C 37.53125 -39.695312 40.5 -36.578125 42.5625 -33.203125 C 44.632812 -29.828125 45.671875 -25.570312 45.671875 -20.4375 C 45.671875 -13.625 43.734375 -8.378906 39.859375 -4.703125 C 35.984375 -1.035156 30.578125 0.796875 23.640625 0.796875 Z M 23.640625 0.796875 "/></g></g></g><g fill="#000000" fill-opacity="1"><g transform="translate(770.809526, 329.928211)"><g><path d="M 18.625 0.796875 C 14.019531 0.796875 10.847656 -0.171875 9.109375 -2.109375 C 7.378906 -4.046875 6.515625 -7.148438 6.515625 -11.421875 L 6.515625 -57.1875 L 1.609375 -57.1875 L 1.609375 -70.515625 L 6.515625 -70.515625 L 6.515625 -86.03125 L 23.53125 -86.03125 L 23.53125 -70.515625 L 28.546875 -70.515625 L 28.546875 -57.1875 L 23.53125 -57.1875 L 23.53125 -16.03125 C 23.53125 -14.757812 23.628906 -13.820312 23.828125 -13.21875 C 24.035156 -12.613281 24.570312 -12.3125 25.4375 -12.3125 C 26.101562 -12.3125 26.738281 -12.34375 27.34375 -12.40625 C 27.945312 -12.476562 28.347656 -12.515625 28.546875 -12.515625 L 28.546875 -0.5 C 27.546875 -0.226562 26.09375 0.0507812 24.1875 0.34375 C 22.28125 0.644531 20.425781 0.796875 18.625 0.796875 Z M 18.625 0.796875 "/></g></g></g></svg>